<svg
    xmlns="http://www.w3.org/2000/svg" 
    width="30" 
    height="30" 
    viewBox="0 0 24 24"
    fill="none"
    stroke="currentColor"
    stroke-width="2"
    stroke-linecap="round"
    stroke-linejoin="round"
>
	<path fill-rule="evenodd" d="M10.5 16a.5.5 0 0 1 .5.5v2a.5.5 0 0 1-1 0v-2a.5.5 0 0 1 .5-.5ZM19.5 16a.5.5 0 0 1 .5.5v2a.5.5 0 0 1-1 0v-2a.5.5 0 0 1 .5-.5ZM20 7.5a.5.5 0 0 0-1 0v2a.5.5 0 0 0 1 0v-2ZM11 7.5a.5.5 0 0 0-1 0v2a.5.5 0 0 0 1 0v-2Z M4 21v1.5a.5.5 0 0 1-1 0V3a1 1 0 0 1 1-1h17a1 1 0 0 1 1 1v19.5a.5.5 0 0 1-1 0V21H4Zm8-1v-8H4v8h8Zm9 0h-8v-8h8v8Zm0-9V3h-8v8h8Zm-9-8H4v8h8V3Z">
	</path>
</svg>